<svg id="Layer_1" data-name="Layer 1" xmlns="http://www.w3.org/2000/svg" viewBox="0 0 900 700"><defs><style>.cls-1{fill:none;stroke:#f0f0f0;stroke-miterlimit:10;}.cls-2,.cls-9{font-size:18px;}.cls-14,.cls-2,.cls-21,.cls-9{fill:#f0f0f0;}.cls-2,.cls-21,.cls-9{font-family:Raleway-Regular, Raleway;}.cls-2{letter-spacing:-0.11em;}.cls-3{letter-spacing:-0.01em;}.cls-4{letter-spacing:0em;}.cls-5{letter-spacing:-0.03em;}.cls-6{letter-spacing:0em;}.cls-7{letter-spacing:0em;}.cls-8{letter-spacing:0em;}.cls-10{letter-spacing:-0.03em;}.cls-11{letter-spacing:0em;}.cls-12{letter-spacing:-0.02em;}.cls-13{letter-spacing:-0.02em;}.cls-14,.cls-21{font-size:14px;}.cls-14{font-family:Raleway-Bold, Raleway;font-weight:700;}.cls-15{letter-spacing:-0.01em;}.cls-16{letter-spacing:0em;}.cls-17{letter-spacing:-0.03em;}.cls-18{letter-spacing:-0.01em;}.cls-19{letter-spacing:-0.02em;}.cls-20{letter-spacing:-0.02em;}.cls-21{opacity:0.6;}.cls-22{letter-spacing:-0.03em;}.cls-23{letter-spacing:-0.03em;}.cls-24{letter-spacing:-0.03em;}.cls-25{letter-spacing:-0.01em;}.cls-26{letter-spacing:0em;}.cls-27{letter-spacing:-0.02em;}.cls-28{letter-spacing:-0.03em;}.cls-29{letter-spacing:-0.02em;}.cls-30{letter-spacing:-0.01em;}.cls-31{letter-spacing:-0.01em;}.cls-32{letter-spacing:-0.01em;}.cls-33{letter-spacing:-0.01em;}.cls-34{letter-spacing:0em;}.cls-35{letter-spacing:-0.01em;}.cls-36,.cls-37{fill:#63c18d;}.cls-37{opacity:0.3;}</style></defs><title>Artboard 1</title><line class="cls-1" x1="445.87" y1="53.25" x2="445.87" y2="653.25"/><line class="cls-1" x1="146.37" y1="353.25" x2="746.37" y2="353.25"/><text class="cls-2" transform="translate(396.9 39.69)">T<tspan class="cls-3" x="9" y="0">r</tspan><tspan class="cls-4" x="15.19" y="0">anspa</tspan><tspan class="cls-5" x="65.18" y="0">r</tspan><tspan class="cls-6" x="71.03" y="0">e</tspan><tspan class="cls-7" x="81.59" y="0">n</tspan><tspan class="cls-8" x="92" y="0">t</tspan></text><text class="cls-9" transform="translate(407.9 671.69)">Sec<tspan class="cls-10" x="31.37" y="0">r</tspan><tspan class="cls-11" x="37.22" y="0">e</tspan><tspan x="47.72" y="0">ti</tspan><tspan class="cls-12" x="57.67" y="0">v</tspan><tspan x="66.94" y="0">e</tspan></text><text class="cls-9" transform="translate(758.9 357.69)">Collabo<tspan class="cls-3" x="64.47" y="0">r</tspan><tspan class="cls-11" x="70.67" y="0">a</tspan><tspan class="cls-8" x="80.41" y="0">ti</tspan><tspan class="cls-13" x="90.36" y="0">v</tspan><tspan x="99.63" y="0">e</tspan></text><text class="cls-9" transform="translate(30.9 357.69)">Independe<tspan class="cls-7" x="90.65" y="0">n</tspan><tspan class="cls-8" x="101.05" y="0">t</tspan></text><text class="cls-14" transform="translate(617.65 87.97)">Scien<tspan class="cls-15" x="36.89" y="0">c</tspan><tspan x="44.71" y="0">e </tspan><tspan x="3.72" y="16.8">D</tspan><tspan class="cls-16" x="13.75" y="16.8">a</tspan><tspan x="21.73" y="16.8">ta</tspan><tspan class="cls-17" x="35.14" y="16.8"> </tspan><tspan x="38.02" y="16.8">Vi</tspan><tspan class="cls-18" x="51.05" y="16.8">e</tspan><tspan class="cls-19" x="59.25" y="16.8">w</tspan><tspan x="70.72" y="16.8">e</tspan><tspan class="cls-20" x="79.11" y="16.8">r</tspan></text><text class="cls-21" transform="translate(268.66 71.97)">Instrume<tspan class="cls-15" x="57.46" y="0">n</tspan><tspan x="65.55" y="0">t </tspan><tspan x="40.38" y="16.8">Goa</tspan><tspan class="cls-22" x="66.36" y="16.8">l</tspan><tspan x="69.73" y="16.8"> </tspan><tspan x="17.74" y="33.6">P</tspan><tspan class="cls-23" x="26.45" y="33.6">r</tspan><tspan x="31" y="33.6">og</tspan><tspan class="cls-24" x="47.98" y="33.6">r</tspan><tspan x="52.53" y="33.6">ess</tspan></text><text class="cls-21" transform="translate(284.1 293.97)">Last <tspan class="cls-25" x="-31.23" y="16.8">A</tspan><tspan class="cls-26" x="-21.96" y="16.8">cc</tspan><tspan x="-6.73" y="16.8">essed</tspan></text><text class="cls-21" transform="translate(111.1 195.97)"><tspan class="cls-22">E</tspan><tspan class="cls-27" x="8.09" y="0">v</tspan><tspan x="15.3" y="0">e</tspan><tspan class="cls-15" x="23.52" y="0">n</tspan><tspan x="31.61" y="0">t </tspan><tspan x="1.94" y="16.8">Tic</tspan><tspan class="cls-28" x="21.22" y="16.8">k</tspan><tspan x="28.26" y="16.8">e</tspan><tspan class="cls-29" x="36.48" y="16.8">r</tspan></text><text class="cls-21" transform="translate(161.59 533.97)"><tspan class="cls-30">S</tspan><tspan x="8.41" y="0">taged </tspan><tspan x="-27.93" y="16.8">I</tspan><tspan class="cls-15" x="-24.46" y="16.8">n</tspan><tspan class="cls-24" x="-16.37" y="16.8">f</tspan><tspan x="-12.11" y="16.8">orm</tspan><tspan class="cls-16" x="14" y="16.8">a</tspan><tspan x="21.58" y="16.8">tion </tspan><tspan class="cls-31" x="-1.38" y="33.6">R</tspan><tspan x="7.55" y="33.6">elease</tspan></text><text class="cls-14" transform="translate(479.15 245.97)">D<tspan class="cls-16" x="10.02" y="0">a</tspan><tspan x="18" y="0">ta </tspan><tspan class="cls-15" x="34.78" y="0">P</tspan><tspan x="43.43" y="0">ac</tspan><tspan class="cls-28" x="59.36" y="0">k</tspan><tspan class="cls-16" x="66.79" y="0">e</tspan><tspan x="75.12" y="0">t </tspan><tspan x="4.22" y="16.8">I</tspan><tspan class="cls-15" x="8.23" y="16.8">n</tspan><tspan class="cls-32" x="16.61" y="16.8">t</tspan><tspan x="21.81" y="16.8">eg</tspan><tspan class="cls-33" x="39.07" y="16.8">r</tspan><tspan class="cls-16" x="44.39" y="16.8">a</tspan><tspan x="52.37" y="16.8">tion</tspan></text><text class="cls-14" transform="translate(603.15 319.97)"><tspan class="cls-31">R</tspan><tspan x="9.1" y="0">el</tspan><tspan class="cls-16" x="21.92" y="0">a</tspan><tspan class="cls-32" x="29.9" y="0">t</tspan><tspan class="cls-34" x="35.1" y="0">ed </tspan><tspan class="cls-23" x="55.87" y="0">f</tspan><tspan x="60.69" y="0">e</tspan><tspan class="cls-16" x="69.07" y="0">a</tspan><tspan x="77.05" y="0">tu</tspan><tspan class="cls-23" x="91.08" y="0">r</tspan><tspan x="96.14" y="0">es </tspan><tspan x="4.22" y="16.8">and use</tspan><tspan class="cls-29" x="57.1" y="16.8">r</tspan><tspan x="62.18" y="16.8" xml:space="preserve"> i</tspan><tspan class="cls-26" x="69.11" y="16.8">n</tspan><tspan class="cls-35" x="77.5" y="16.8">t</tspan><tspan x="82.69" y="16.8">e</tspan><tspan class="cls-24" x="91.08" y="16.8">r</tspan><tspan x="96.13" y="16.8">est</tspan></text><text class="cls-14" transform="translate(717.65 429.97)">Public <tspan x="3.72" y="16.8">instrume</tspan><tspan class="cls-15" x="63.57" y="16.8">n</tspan><tspan x="71.96" y="16.8">t </tspan><tspan x="2.84" y="33.6">t</tspan><tspan class="cls-23" x="8.22" y="33.6">r</tspan><tspan x="13.27" y="33.6">ends and d</tspan><tspan class="cls-16" x="87.37" y="33.6">a</tspan><tspan x="95.35" y="33.6">ta</tspan></text><circle class="cls-36" cx="583.87" cy="104.25" r="27.5"/><circle class="cls-37" cx="375.87" cy="78.25" r="27.5"/><circle class="cls-37" cx="348.87" cy="283.25" r="27.5"/><circle class="cls-37" cx="184.87" cy="185.25" r="27.5"/><circle class="cls-37" cx="244.87" cy="540.25" r="27.5"/><circle class="cls-36" cx="445.87" cy="263.25" r="27.5"/><circle class="cls-36" cx="569.87" cy="337.25" r="27.5"/><circle class="cls-36" cx="683.87" cy="446.25" r="27.5"/></svg>