<svg id="Layer_1" data-name="Layer 1" xmlns="http://www.w3.org/2000/svg" viewBox="0 0 800 700"><defs><style>.cls-1{fill:none;stroke:#f0f0f0;stroke-miterlimit:10;}.cls-2{font-size:18px;}.cls-13,.cls-2,.cls-9{fill:#f0f0f0;}.cls-13,.cls-2{font-family:Raleway-Regular, Raleway;}.cls-3{letter-spacing:-0.01em;}.cls-4{letter-spacing:0em;}.cls-5{letter-spacing:0em;}.cls-6{letter-spacing:-0.02em;}.cls-7{letter-spacing:-0.01em;}.cls-8{letter-spacing:0em;}.cls-13,.cls-9{font-size:14px;}.cls-9{font-family:Raleway-Bold, Raleway;font-weight:700;}.cls-10{letter-spacing:-0.02em;}.cls-11{letter-spacing:-0.01em;}.cls-12{letter-spacing:-0.03em;}.cls-13{opacity:0.6;}.cls-14{letter-spacing:-0.11em;}.cls-15{letter-spacing:-0.01em;}.cls-16{letter-spacing:-0.01em;}.cls-17{letter-spacing:-0.01em;}.cls-18{letter-spacing:-0.02em;}.cls-19{letter-spacing:-0.03em;}.cls-20{letter-spacing:-0.02em;}.cls-21{letter-spacing:-0.03em;}.cls-22{letter-spacing:-0.01em;}.cls-23{letter-spacing:-0.03em;}.cls-24{letter-spacing:-0.01em;}.cls-25{letter-spacing:0em;}.cls-26{letter-spacing:0em;}.cls-27{letter-spacing:0em;}.cls-28,.cls-29{fill:#63c18d;}.cls-29{opacity:0.3;}</style></defs><title>Matrix 1-b</title><line class="cls-1" x1="374.83" y1="53.25" x2="374.83" y2="653.25"/><line class="cls-1" x1="75.33" y1="353.25" x2="675.33" y2="353.25"/><text class="cls-2" transform="translate(326.85 39.69)"><tspan class="cls-3">E</tspan><tspan x="10.85" y="0">mp</tspan><tspan class="cls-4" x="38.5" y="0">a</tspan><tspan x="48.24" y="0">th</tspan><tspan class="cls-4" x="64.76" y="0">e</tspan><tspan x="75.26" y="0">tic</tspan></text><text class="cls-2" transform="translate(333.85 671.69)">Ap<tspan class="cls-5" x="23.27" y="0">a</tspan><tspan x="33.01" y="0">th</tspan><tspan class="cls-5" x="49.54" y="0">e</tspan><tspan x="60.03" y="0">tic</tspan></text><text class="cls-2" transform="translate(687.85 357.69)"><tspan class="cls-6">A</tspan><tspan x="11.9" y="0">da</tspan><tspan class="cls-7" x="32.9" y="0">p</tspan><tspan x="43.88" y="0">table</tspan></text><text class="cls-2" transform="translate(25.85 357.69)"><tspan class="cls-8">R</tspan><tspan x="11.66" y="0">igid</tspan></text><text class="cls-9" transform="translate(674.6 61.97)">Mi<tspan class="cls-10" x="15.68" y="0">x</tspan><tspan x="22.81" y="0">ed </tspan><tspan class="cls-11" x="3.72" y="16.8">R</tspan><tspan x="12.82" y="16.8">ealit</tspan><tspan class="cls-12" x="42.63" y="16.8">y</tspan><tspan x="49.95" y="16.8"> </tspan><tspan x="2.84" y="33.6">Sandb</tspan><tspan class="cls-10" x="45.82" y="33.6">o</tspan><tspan x="54" y="33.6">x</tspan></text><text class="cls-13" transform="translate(448.87 455.97)"><tspan class="cls-14">T</tspan><tspan class="cls-15" x="7" y="0">r</tspan><tspan x="11.82" y="0">ajec</tspan><tspan class="cls-16" x="38.5" y="0">t</tspan><tspan x="43.01" y="0">or</tspan><tspan class="cls-12" x="56.25" y="0">y</tspan><tspan x="63.46" y="0"> </tspan><tspan class="cls-15" x="15.08" y="16.8">R</tspan><tspan x="24.12" y="16.8">anking</tspan></text><text class="cls-13" transform="translate(146.3 468.97)">Vi<tspan class="cls-17" x="12.56" y="0">e</tspan><tspan class="cls-12" x="20.58" y="0">w</tspan><tspan x="31.58" y="0" xml:space="preserve"> the orbi</tspan><tspan class="cls-16" x="84.73" y="0">t</tspan><tspan x="89.23" y="0">e</tspan><tspan class="cls-18" x="97.45" y="0">r</tspan><tspan x="102.03" y="0"> </tspan><tspan x="26.61" y="16.8">f</tspan><tspan class="cls-19" x="31.23" y="16.8">r</tspan><tspan x="35.78" y="16.8">om </tspan><tspan class="cls-20" x="60.55" y="16.8">E</tspan><tspan x="68.81" y="16.8">u</tspan><tspan class="cls-21" x="77.12" y="16.8">r</tspan><tspan x="81.67" y="16.8">opa</tspan></text><text class="cls-9" transform="translate(498.1 218.97)"><tspan class="cls-14">T</tspan><tspan class="cls-15" x="7.13" y="0">r</tspan><tspan x="12.45" y="0">ajec</tspan><tspan class="cls-16" x="40.42" y="0">t</tspan><tspan x="45.61" y="0">or</tspan><tspan class="cls-12" x="59.51" y="0">y</tspan><tspan x="66.83" y="0"> </tspan><tspan x="4.22" y="16.8">P</tspan><tspan class="cls-19" x="12.95" y="16.8">r</tspan><tspan x="18" y="16.8">ojection </tspan><tspan class="cls-22" x="3.55" y="33.6">M</tspan><tspan x="15.59" y="33.6">apping</tspan></text><text class="cls-9" transform="translate(457.45 80.97)">Virtua<tspan class="cls-23" x="40.52" y="0">l</tspan><tspan x="44.52" y="0"> </tspan><tspan class="cls-11" x="47.88" y="0">R</tspan><tspan x="56.98" y="0">ealit</tspan><tspan class="cls-12" x="86.79" y="0">y</tspan><tspan x="94.11" y="0"> </tspan><tspan class="cls-11" x="50.78" y="16.8">R</tspan><tspan x="59.88" y="16.8">oom</tspan></text><text class="cls-9" transform="translate(211.89 258.97)"><tspan class="cls-24">E</tspan><tspan x="8.33" y="0">r</tspan><tspan class="cls-19" x="13.75" y="0">r</tspan><tspan class="cls-25" x="18.8" y="0">o</tspan><tspan class="cls-18" x="27.29" y="0">r</tspan><tspan x="32.37" y="0"> </tspan><tspan class="cls-24" x="35.73" y="0">S</tspan><tspan x="44.23" y="0">t</tspan><tspan class="cls-26" x="49.6" y="0">a</tspan><tspan class="cls-16" x="57.58" y="0">t</tspan><tspan x="62.78" y="0">e </tspan><tspan x="1.72" y="16.8">D</tspan><tspan class="cls-27" x="11.75" y="16.8">e</tspan><tspan class="cls-16" x="20.08" y="16.8">t</tspan><tspan x="25.27" y="16.8">ection</tspan></text><circle class="cls-28" cx="640.83" cy="78.25" r="27.5"/><circle class="cls-29" cx="549.83" cy="447.25" r="27.5"/><circle class="cls-29" cx="285.83" cy="459.25" r="27.5"/><text class="cls-13" transform="translate(94.37 401.97)"><tspan class="cls-15">J</tspan><tspan x="6.64" y="0">a</tspan><tspan class="cls-19" x="14.27" y="0">r</tspan><tspan x="18.82" y="0">gon </tspan><tspan x="-17.04" y="16.8">Dictionar</tspan><tspan class="cls-12" x="40.49" y="16.8">y</tspan></text><circle class="cls-29" cx="175.83" cy="393.25" r="27.5"/><circle class="cls-28" cx="464.83" cy="236.25" r="27.5"/><circle class="cls-28" cx="584.83" cy="98.25" r="27.5"/><circle class="cls-28" cx="316.83" cy="275.25" r="27.5"/></svg>