<svg id="Layer_1" data-name="Layer 1" xmlns="http://www.w3.org/2000/svg" viewBox="0 0 800 700"><defs><style>.cls-1{fill:none;stroke:#f0f0f0;stroke-miterlimit:10;}.cls-2{font-size:18px;}.cls-10,.cls-2,.cls-20{fill:#f0f0f0;}.cls-2,.cls-20{font-family:Raleway-Regular, Raleway;}.cls-3{letter-spacing:-0.01em;}.cls-4{letter-spacing:0em;}.cls-5{letter-spacing:-0.01em;}.cls-6{letter-spacing:-0.03em;}.cls-7{letter-spacing:-0.02em;}.cls-8{letter-spacing:-0.03em;}.cls-9{letter-spacing:-0.03em;}.cls-10,.cls-20{font-size:14px;}.cls-10{font-family:Raleway-Bold, Raleway;font-weight:700;}.cls-11{letter-spacing:-0.02em;}.cls-12{letter-spacing:-0.01em;}.cls-13{letter-spacing:-0.03em;}.cls-14{letter-spacing:-0.11em;}.cls-15{letter-spacing:-0.01em;}.cls-16{letter-spacing:-0.01em;}.cls-17{letter-spacing:-0.03em;}.cls-18{letter-spacing:-0.01em;}.cls-19{letter-spacing:-0.03em;}.cls-20{opacity:0.6;}.cls-21{letter-spacing:-0.01em;}.cls-22{letter-spacing:-0.03em;}.cls-23{letter-spacing:-0.02em;}.cls-24{letter-spacing:0em;}.cls-25{letter-spacing:0em;}.cls-26,.cls-27{fill:#63c18d;}.cls-27{opacity:0.3;}.cls-28{letter-spacing:-0.01em;}.cls-29{letter-spacing:-0.02em;}.cls-30{letter-spacing:-0.01em;}.cls-31{letter-spacing:0em;}.cls-32{letter-spacing:0em;}</style></defs><title>Matrix 2-a</title><line class="cls-1" x1="401.66" y1="53.25" x2="401.66" y2="653.25"/><line class="cls-1" x1="102.16" y1="353.25" x2="702.16" y2="353.25"/><text class="cls-2" transform="translate(308.69 39.69)"><tspan class="cls-3">N</tspan><tspan x="13.77" y="0">e</tspan><tspan class="cls-4" x="24.34" y="0">c</tspan><tspan x="34.13" y="0">essari</tspan><tspan class="cls-5" x="82.28" y="0">l</tspan><tspan class="cls-6" x="86.98" y="0">y</tspan><tspan x="96.25" y="0" xml:space="preserve"> Immersi</tspan><tspan class="cls-7" x="167.96" y="0">v</tspan><tspan x="177.23" y="0">e</tspan></text><text class="cls-2" transform="translate(298.69 671.69)">Unne<tspan class="cls-4" x="45.14" y="0">c</tspan><tspan x="54.94" y="0">essari</tspan><tspan class="cls-5" x="103.08" y="0">l</tspan><tspan class="cls-6" x="107.78" y="0">y</tspan><tspan x="117.05" y="0" xml:space="preserve"> Immersi</tspan><tspan class="cls-7" x="188.76" y="0">v</tspan><tspan x="198.03" y="0">e</tspan></text><text class="cls-2" transform="translate(714.69 357.69)"><tspan class="cls-8">F</tspan><tspan x="9.99" y="0">easible</tspan></text><text class="cls-2" transform="translate(15.69 357.69)">I<tspan class="cls-4" x="4.46" y="0">n</tspan><tspan class="cls-9" x="14.87" y="0">f</tspan><tspan x="20.34" y="0">easible</tspan></text><text class="cls-10" transform="translate(639.43 54.97)">Mi<tspan class="cls-11" x="15.68" y="0">x</tspan><tspan x="22.81" y="0">ed </tspan><tspan class="cls-12" x="3.72" y="16.8">R</tspan><tspan x="12.82" y="16.8">ealit</tspan><tspan class="cls-13" x="42.63" y="16.8">y</tspan><tspan x="49.95" y="16.8"> </tspan><tspan x="2.84" y="33.6">Sandb</tspan><tspan class="cls-11" x="45.82" y="33.6">o</tspan><tspan x="54" y="33.6">x</tspan></text><text class="cls-10" transform="translate(427.93 87.97)"><tspan class="cls-14">T</tspan><tspan class="cls-15" x="7.13" y="0">r</tspan><tspan x="12.45" y="0">ajec</tspan><tspan class="cls-16" x="40.42" y="0">t</tspan><tspan x="45.61" y="0">or</tspan><tspan class="cls-13" x="59.51" y="0">y</tspan><tspan x="66.83" y="0"> </tspan><tspan x="4.22" y="16.8">P</tspan><tspan class="cls-17" x="12.95" y="16.8">r</tspan><tspan x="18" y="16.8">ojection </tspan><tspan class="cls-18" x="3.55" y="33.6">M</tspan><tspan x="15.59" y="33.6">apping</tspan></text><text class="cls-10" transform="translate(539.28 206.97)">Virtua<tspan class="cls-19" x="40.52" y="0">l</tspan><tspan x="44.52" y="0"> </tspan><tspan class="cls-12" x="47.88" y="0">R</tspan><tspan x="56.98" y="0">ealit</tspan><tspan class="cls-13" x="86.79" y="0">y</tspan><tspan x="94.11" y="0"> </tspan><tspan class="cls-12" x="50.78" y="16.8">R</tspan><tspan x="59.88" y="16.8">oom</tspan></text><text class="cls-20" transform="translate(89.1 79.97)"><tspan class="cls-21">E</tspan><tspan x="8.44" y="0">r</tspan><tspan class="cls-22" x="13.36" y="0">r</tspan><tspan x="17.91" y="0">o</tspan><tspan class="cls-23" x="26.24" y="0">r</tspan><tspan x="30.82" y="0"> </tspan><tspan class="cls-21" x="34.39" y="0">S</tspan><tspan x="42.8" y="0">t</tspan><tspan class="cls-24" x="47.49" y="0">a</tspan><tspan class="cls-16" x="55.06" y="0">t</tspan><tspan x="59.57" y="0">e </tspan><tspan x="1.25" y="16.8">D</tspan><tspan class="cls-25" x="11.26" y="16.8">e</tspan><tspan class="cls-16" x="19.42" y="16.8">t</tspan><tspan x="23.93" y="16.8">ection</tspan></text><circle class="cls-26" cx="605.66" cy="71.25" r="27.5"/><circle class="cls-26" cx="394.66" cy="105.25" r="27.5"/><circle class="cls-26" cx="666.66" cy="224.25" r="27.5"/><circle class="cls-27" cx="190.66" cy="96.25" r="27.5"/><text class="cls-20" transform="translate(149.43 165.97)">Scien<tspan class="cls-18" x="35.62" y="0">c</tspan><tspan x="43.23" y="0">e D</tspan><tspan class="cls-25" x="65.03" y="0">a</tspan><tspan x="72.6" y="0">ta </tspan><tspan x="3.72" y="16.8">Vi</tspan><tspan class="cls-28" x="16.28" y="16.8">e</tspan><tspan class="cls-29" x="24.3" y="16.8">w</tspan><tspan x="35.42" y="16.8">e</tspan><tspan class="cls-23" x="43.63" y="16.8">r</tspan></text><circle class="cls-27" cx="115.66" cy="182.25" r="27.5"/><text class="cls-10" transform="translate(529.93 275.97)">Scien<tspan class="cls-18" x="36.89" y="0">c</tspan><tspan x="44.71" y="0">e </tspan><tspan class="cls-15" x="56.46" y="0">H</tspan><tspan x="66.79" y="0">e</tspan><tspan class="cls-25" x="75.18" y="0">a</tspan><tspan x="83.16" y="0">t</tspan><tspan class="cls-18" x="4.22" y="16.8">M</tspan><tspan x="16.26" y="16.8">ap</tspan></text><circle class="cls-26" cx="496.66" cy="293.25" r="27.5"/><text class="cls-20" transform="translate(228.21 571.97)"><tspan class="cls-12">R</tspan><tspan x="8.93" y="0">el</tspan><tspan class="cls-25" x="20.96" y="0">a</tspan><tspan class="cls-30" x="28.53" y="0">t</tspan><tspan class="cls-31" x="33.04" y="0">ed </tspan><tspan class="cls-22" x="53.53" y="0">f</tspan><tspan x="57.79" y="0">e</tspan><tspan class="cls-25" x="66.01" y="0">a</tspan><tspan x="73.58" y="0">tu</tspan><tspan class="cls-17" x="86.59" y="0">r</tspan><tspan x="91.14" y="0">es </tspan><tspan x="-5.76" y="16.8">and use</tspan><tspan class="cls-23" x="45.66" y="16.8">r</tspan><tspan x="50.24" y="16.8" xml:space="preserve"> i</tspan><tspan class="cls-32" x="56.86" y="16.8">n</tspan><tspan class="cls-30" x="64.95" y="16.8">t</tspan><tspan x="69.46" y="16.8">e</tspan><tspan class="cls-22" x="77.68" y="16.8">r</tspan><tspan x="82.23" y="16.8">est</tspan></text><circle class="cls-27" cx="367.66" cy="589.25" r="27.5"/></svg>