<?xml version="1.0" encoding="UTF-8"?>
<svg width="79px" height="79px" viewBox="0 0 79 79" version="1.1" xmlns="http://www.w3.org/2000/svg" xmlns:xlink="http://www.w3.org/1999/xlink">
    <!-- Generator: Sketch 46.1 (44463) - http://www.bohemiancoding.com/sketch -->
    <title>Shape</title>
    <desc>Created with Sketch.</desc>
    <defs></defs>
    <g id="Page-1" stroke="none" stroke-width="1" fill="none" fill-rule="evenodd">
        <path d="M46.1,78.2 C57.8,78.2 69.5,73.7 78.5,64.8 L48.1,34.4 C48.1,34.4 50.9666667,31.5333333 56.7,25.8 C57.8,26.3 59.1,26.7 60.4,26.7 C65.1,26.7 69,22.9 69,18.1 C69,13.3 65.2,9.5 60.4,9.5 C55.6,9.5 51.8,13.3 51.8,18.1 C51.8,19.4 52.1,20.7 52.7,21.8 L44.1,30.4 C44.1,30.4 33.9666667,20.2666667 13.7,0 C-2.8,16.4 -4,42.2 9.7,60.2 C9.7,60.2 12.4424955,64.3359147 19.4817539,69.4493383 C21.4384993,70.8707476 25.2445813,72.9209682 30.9,75.6 C35.8,77.3 41,78.2 46.1,78.2 Z M14,8.4 L70.1,64.5 C63.2,69.7 54.9,72.5 46.1,72.5 C35.4,72.5 25.3,68.3 17.8,60.8 C10.2,53.2 6,43.1 6,32.4 C6,23.6 8.8,15.3 14,8.4 Z" id="Shape" fill="#000000" fill-rule="nonzero"></path>
    </g>
</svg>