<?xml version="1.0" encoding="UTF-8"?>
<svg width="72px" height="67px" viewBox="0 0 72 67" version="1.1" xmlns="http://www.w3.org/2000/svg" xmlns:xlink="http://www.w3.org/1999/xlink">
    <!-- Generator: Sketch 46.1 (44463) - http://www.bohemiancoding.com/sketch -->
    <title>noun_1047637_cc</title>
    <desc>Created with Sketch.</desc>
    <defs></defs>
    <g id="Page-1" stroke="none" stroke-width="1" fill="none" fill-rule="evenodd">
        <g id="noun_1047637_cc" fill-rule="nonzero" fill="#000000">
            <path d="M61.904,40.057 L40.95,3.763 C38.724,-0.093 33.158,-0.093 30.931,3.763 L1.724,54.351 C-0.502,58.207 2.281,63.027 6.733,63.027 L48.636,63.027 C42.233,52.905 49.747,39.579 61.904,40.057 Z M35.242,14.596 L36.638,14.596 C38.892,14.596 40.698,16.463 40.623,18.716 L39.925,39.664 C39.853,41.813 38.091,43.518 35.94,43.518 C33.789,43.518 32.027,41.813 31.955,39.664 L31.257,18.716 C31.182,16.463 32.988,14.596 35.242,14.596 Z M35.94,57.978 C33.278,57.978 31.12,55.82 31.12,53.158 C31.12,50.496 33.278,48.338 35.94,48.338 C38.602,48.338 40.76,50.496 40.76,53.158 C40.76,55.82 38.603,57.978 35.94,57.978 Z" id="Shape"></path>
            <path d="M62.748,63.08 C62.933,63.265 62.933,63.565 62.748,63.75 L60.199,66.299 C60.027,66.471 59.734,66.349 59.734,66.106 L59.734,64.644 C55.093,63.882 51.561,59.806 51.561,55.027 C51.561,51.91 53.07,48.956 55.597,47.125 C56.209,46.684 57.06,46.82 57.5,47.43 C57.942,48.04 57.806,48.891 57.197,49.333 C55.375,50.652 54.287,52.78 54.287,55.027 C54.287,58.315 56.614,61.123 59.734,61.849 L59.734,60.723 C59.734,60.48 60.028,60.359 60.199,60.53 L62.748,63.08 Z" id="Shape"></path>
            <path d="M71.06,55.027 C71.06,58.15 69.547,61.107 67.011,62.937 C66.77,63.111 66.492,63.195 66.215,63.195 C65.792,63.195 65.375,62.999 65.109,62.63 C64.668,62.02 64.806,61.168 65.416,60.727 C67.242,59.407 68.334,57.276 68.334,55.026 C68.334,51.735 66.031,48.935 62.887,48.21 L62.887,49.33 C62.887,49.573 62.593,49.694 62.422,49.523 L59.873,46.974 C59.688,46.789 59.688,46.489 59.873,46.304 L62.422,43.755 C62.594,43.583 62.887,43.705 62.887,43.948 L62.887,45.413 C67.567,46.177 71.06,50.245 71.06,55.027 Z" id="Shape"></path>
        </g>
    </g>
</svg>